<svg xmlns="http://www.w3.org/2000/svg" fill="currentColor" viewBox="0 0 32 32" class="iconset-arrow_carrot-2_alt2"><path d="m16.04 9.956 6.392 5.654a1.074 1.074 0 0 0 1.517 0 1.074 1.074 0 0 0 0-1.517L16.813 7.78a1.06 1.06 0 0 0-.772-.311 1.08 1.08 0 0 0-.775.311L8.13 14.093a1.074 1.074 0 0 0 0 1.517 1.074 1.074 0 0 0 1.517 0zm7.909 13.306a1.074 1.074 0 0 0 0-1.517l-7.136-6.315a1.06 1.06 0 0 0-.772-.311 1.08 1.08 0 0 0-.775.311L8.13 21.743a1.074 1.074 0 0 0 0 1.517 1.074 1.074 0 0 0 1.517 0l6.391-5.654 6.392 5.654c.42.42 1.1.42 1.519.002M32 16c0-8.836-7.164-16-16-16S0 7.164 0 16s7.164 16 16 16 16-7.164 16-16M2.133 16C2.133 8.354 8.354 2.133 16 2.133S29.867 8.354 29.867 16 23.646 29.867 16 29.867 2.133 23.646 2.133 16"/></svg>