<svg xmlns="http://www.w3.org/2000/svg" fill="currentColor" viewBox="0 0 32 32" class="iconset-arrow_carrot_alt2"><path d="M23.676 19.413a1.067 1.067 0 0 0 0-1.508l-6.919-6.918a1.06 1.06 0 0 0-.757-.312c-.275 0-.548.103-.757.312l-6.919 6.918a1.067 1.067 0 0 0 1.509 1.508L16 13.246l6.167 6.167a1.067 1.067 0 0 0 1.509 0M32 16c0-8.836-7.164-16-16-16S0 7.164 0 16s7.164 16 16 16 16-7.164 16-16M2.133 16C2.133 8.354 8.354 2.133 16 2.133S29.867 8.354 29.867 16 23.646 29.867 16 29.867 2.133 23.646 2.133 16"/></svg>