<svg xmlns="http://www.w3.org/2000/svg" fill="currentColor" viewBox="0 0 32 32" class="iconset-arrow_triangle_alt2"><path d="M32 16c0-8.836-7.164-16-16-16S0 7.164 0 16s7.164 16 16 16 16-7.164 16-16M2.133 16C2.133 8.354 8.354 2.133 16 2.133S29.867 8.354 29.867 16 23.646 29.867 16 29.867 2.133 23.646 2.133 16m21.082 2.829c.363-.463.363-1.214 0-1.677l-6.532-8.27c-.363-.464-.954-.464-1.317 0-.01.012-.012.029-.023.042l-6.517 8.228c-.363.463-.363 1.214 0 1.677.002.004.008.004.01.008.17.224.406.363.668.363h13.035c.266 0 .503-.147.672-.375z"/></svg>