<svg xmlns="http://www.w3.org/2000/svg" fill="currentColor" viewBox="0 0 32 32" class="iconset-arrow_expand_alt"><path d="M23.517 8.485a.967.967 0 0 0 0-1.367L16.683.284l-.002-.002a.95.95 0 0 0-.667-.28L16 0c-.003 0-.005.003-.01.001a.96.96 0 0 0-.673.283L8.483 7.118A.967.967 0 0 0 9.85 8.485L15.034 3.3v25.402L9.85 23.519a.967.967 0 0 0-1.367 1.366l6.834 6.834q.134.135.314.208a.97.97 0 0 0 1.052-.208l6.834-6.834a.967.967 0 0 0-1.367-1.366l-5.184 5.184V3.3l5.184 5.184a.967.967 0 0 0 1.367 0"/></svg>