<svg version="1.0" xmlns="http://www.w3.org/2000/svg" width="230.667" height="233.333" viewBox="0 0 173 175"><path d="M0 87.5V175h173V0H0v87.5zm129.7-62C139.8 30.6 149 43.6 149 53v4.5l-47.8 47.8c-44.3 44.3-48.1 47.9-51.8 48.4C36 155.4 18 138.1 18 123.5v-5l47.8-47.7L113.5 23h5.6c3.9 0 7 .7 10.6 2.5z"/><path d="M76.2 71.3l-41.5 41.5 5 2.6c6.4 3.2 13.4 10.2 16.6 16.5l2.4 4.9 41.2-41.2C130 65.5 141 53.9 141 52.2c0-8.1-10.6-19.4-20.4-21.6-2.8-.7-4.9 1.3-44.4 40.7zM26.3 121.5c-1.8 4.9 3.1 14.6 10.1 19.7 4.5 3.2 10.7 5.4 13 4.5 2.2-.9 2-5.9-.4-10.6-4.7-9.3-20.6-18.8-22.7-13.6z"/></svg>