<svg xmlns="http://www.w3.org/2000/svg" fill="currentColor" viewBox="0 0 32 32" class="iconset-icon_loading"><path d="M27.02 22.82a.182.182 1080 1 0 .364 0 .182.182 1080 1 0-.364 0m-4.018 4.146a.362.362 1080 1 0 .724 0 .362.362 1080 1 0-.724 0M17.586 29.1a.544.544 1080 1 0 1.088 0 .544.544 1080 1 0-1.088 0m-5.83-.286a.724.724 1080 1 0 1.448 0 .724.724 1080 1 0-1.448 0M6.584 26.16a.906.906 1080 1 0 1.812 0 .906.906 1080 1 0-1.812 0m-3.582-4.512a1.088 1.088 1080 1 0 2.176 0 1.088 1.088 1080 1 0-2.176 0m-1.344-5.54a1.268 1.268 1080 1 0 2.536 0 1.268 1.268 1080 1 0-2.536 0m1.106-5.504a1.45 1.45 1080 1 0 2.9 0 1.45 1.45 1080 1 0-2.9 0m3.318-4.438a1.632 1.632 1080 1 0 3.264 0 1.632 1.632 1080 1 0-3.264 0m4.872-2.542a1.812 1.812 1080 1 0 3.624 0 1.812 1.812 1080 1 0-3.624 0m5.472-.158a1.994 1.994 1080 1 0 3.988 0 1.994 1.994 1080 1 0-3.988 0m5.01 2.254a2.174 2.174 1080 1 0 4.348 0 2.174 2.174 1080 1 0-4.348 0m3.56 4.234a2.356 2.356 1080 1 0 4.712 0 2.356 2.356 1080 1 0-4.712 0m1.416 5.484a2.538 2.538 1080 1 0 5.076 0 2.538 2.538 1080 1 0-5.076 0"/></svg>