<svg xmlns="http://www.w3.org/2000/svg" fill="currentColor" viewBox="0 0 32 32" class="iconset-icon_tag_alt"><path d="M29.058 2.01h-.054q-.023-.002-.046 0H16.384c-.306.014-1.002.492-1.092.582L.584 17.3c-.78.78-.78 2.044 0 2.824l11.292 11.292c.392.39.902.584 1.412.584s1.022-.194 1.412-.584l14.708-14.708c.09-.09.592-.708.592-1.092V3.002a.93.93 0 0 0-.942-.992M28 15.242c-.03.046-.06.094-.088.132L13.29 30 1.998 18.714 16.624 4.088q.061-.042.134-.088H28zM24 7a1 1 1080 1 0 2 0 1 1 1080 1 0-2 0"/></svg>