<svg xmlns="http://www.w3.org/2000/svg" fill="currentColor" viewBox="0 0 32 32" class="iconset-icon_lightbulb"><path d="M27.176 16.156c.142-.38.26-.772.362-1.166.018-.068.04-.132.056-.2.09-.37.154-.748.208-1.128.012-.088.034-.176.044-.264q.083-.693.084-1.398c0-6.616-5.384-12-12-12s-12 5.384-12 12q.001.706.086 1.396c.01.09.03.176.042.264.054.38.118.758.208 1.128.016.068.038.134.056.2.102.394.22.786.362 1.166q.022.054.042.108c.158.41.334.812.536 1.202l.024.044q.314.606.698 1.176.012.017.022.034.376.554.812 1.066l.07.082c.264.306.55.596.846.876.066.062.128.124.196.184.088.078.166.166.258.242.054.046.12.076.18.114.198.164.386.336.596.488.084.06.136.118.208.178 1.38 1.146.706 2.052 2.242 2.052h9.032c1.534 0 .862-.906 2.244-2.052.072-.06.124-.116.208-.178.21-.152.398-.324.596-.488.058-.04.124-.068.18-.114.09-.076.17-.164.258-.242q.098-.092.196-.184.445-.419.846-.876l.07-.082q.436-.512.812-1.066.012-.017.022-.034.381-.568.696-1.174l.024-.044c.202-.39.378-.792.536-1.202q.02-.055.042-.108M23 12.094a1 1 0 0 1-1-1C22 8.046 19.25 6 17 6a1 1 0 0 1 0-2c3.438 0 7 2.532 7 7.094a1 1 0 0 1-1 1M15.808 30h-4.394l3.606 1.844a2 2 0 0 0 1.812.006L20.49 30h-4.682M22 27a1 1 0 0 0-1-1H11a1 1 0 0 0 0 2h10a1 1 0 0 0 1-1"/></svg>