<svg xmlns="http://www.w3.org/2000/svg" fill="currentColor" viewBox="0 0 32 32" class="iconset-icon_cart_alt"><path d="M6 30a2 2 1080 1 0 4 0 2 2 1080 1 0-4 0m18 0a2 2 1080 1 0 4 0 2 2 1080 1 0-4 0M-.058 5a1 1 0 0 0 1 1H3.02l1.242 5.312L6 20c0 .072.034.134.042.204l-1.018 4.58A.997.997 0 0 0 6 26h22.688a1 1 0 0 0 0-2H7.248l.458-2.06c.1.016.19.06.294.06h18.23c1.104 0 1.77-.218 2.302-1.5l3.248-9.964C32.344 8.75 31.106 8 30 8H6c-.156 0-.292.054-.438.088l-.776-3.316A1 1 0 0 0 3.812 4H.942a1 1 0 0 0-1 1m6.098 5h23.81l-3.192 9.798q-.058.128-.094.19c-.066.006-.17.012-.334.012H8v-.198l-.038-.194z"/></svg>