<svg xmlns="http://www.w3.org/2000/svg" xml:space="preserve" fill="currentColor" viewBox="0 0 32 32" class="iconset-icon_globe-2"><path d="M17 2C8.716 2 2 8.716 2 17s6.716 15 15 15 15-6.716 15-15S25.284 2 17 2m10.938 8h-2.98c-.58-1.824-1.376-3.422-2.336-4.704A13.1 13.1 0 0 1 27.938 10M18 10V4.164c1.89.558 3.732 2.654 4.866 5.836zm5.448 2c.282 1.224.464 2.564.522 4H18v-4zM16 4.164V10h-4.866C12.268 6.818 14.11 4.722 16 4.164M16 12v4h-5.97c.058-1.436.24-2.776.522-4zm-7.97 4H4.05c.108-1.406.43-2.754.952-4h3.52a24 24 0 0 0-.492 4m0 2a24 24 0 0 0 .492 4h-3.52a12.9 12.9 0 0 1-.952-4zm2 0H16v4h-5.448a21.8 21.8 0 0 1-.522-4M16 24v5.836c-1.89-.558-3.732-2.654-4.866-5.836zm2 5.836V24h4.866c-1.134 3.182-2.976 5.278-4.866 5.836M18 22v-4h5.97a21.8 21.8 0 0 1-.522 4zm7.97-4h3.98a12.9 12.9 0 0 1-.952 4h-3.52a24 24 0 0 0 .492-4m0-2a24 24 0 0 0-.492-4h3.52c.522 1.246.844 2.594.952 4zM11.378 5.296C10.42 6.578 9.622 8.176 9.042 10h-2.98a13.1 13.1 0 0 1 5.316-4.704M6.062 24h2.98c.58 1.824 1.376 3.422 2.336 4.704A13.1 13.1 0 0 1 6.062 24m16.56 4.704c.958-1.282 1.756-2.88 2.336-4.704h2.98a13.1 13.1 0 0 1-5.316 4.704"/></svg>