<svg xmlns="http://www.w3.org/2000/svg" fill="currentColor" viewBox="0 0 32 32" class="iconset-icon_cog"><path d="M27.526 12.682a12 12 0 0 0-1.028-2.492l1.988-4.182a16 16 0 0 0-2.494-2.494L21.81 5.502a12 12 0 0 0-2.492-1.028L17.762.102C17.184.038 16.596 0 16 0s-1.184.038-1.762.102l-1.556 4.372c-.874.252-1.71.596-2.49 1.028L6.008 3.514a16 16 0 0 0-2.494 2.494l1.988 4.182a12 12 0 0 0-1.028 2.492L.102 14.238C.038 14.816 0 15.404 0 16s.038 1.184.102 1.762l4.374 1.556c.252.876.594 1.71 1.028 2.492l-1.988 4.182c.738.92 1.574 1.758 2.494 2.494l4.182-1.988c.78.432 1.616.776 2.492 1.028L14.24 31.9c.576.062 1.164.1 1.76.1s1.184-.038 1.762-.102l1.556-4.374c.876-.252 1.71-.594 2.492-1.028l4.182 1.988a16 16 0 0 0 2.494-2.494l-1.988-4.182a12 12 0 0 0 1.028-2.492L31.9 17.76c.062-.576.1-1.164.1-1.76s-.038-1.184-.102-1.762zM16 24a8 8 0 1 1 0-16 8 8 0 0 1 0 16m-4-8a4 4 1080 1 0 8 0 4 4 1080 1 0-8 0"/></svg>