<svg xmlns="http://www.w3.org/2000/svg" fill="currentColor" viewBox="0 0 32 32" class="iconset-icon_check_alt"><path d="M16.084 0c-8.836 0-16 7.164-16 16s7.164 16 16 16 16-7.164 16-16-7.164-16-16-16m7.412 11.574-7.664 11.714q-.005.003-.006.006c-.04.06-.062.128-.112.184-.07.076-.16.116-.24.174q-.03.022-.062.044-.184.115-.392.164c-.046.012-.088.024-.136.032a1.4 1.4 0 0 1-.336.004 1.3 1.3 0 0 1-.234-.036 1.4 1.4 0 0 1-.23-.092c-.064-.03-.132-.038-.192-.076-.044-.028-.068-.072-.106-.106-.016-.014-.036-.018-.052-.032l-4.462-4.126a1.4 1.4 0 0 1 1.9-2.056l3.23 2.988 6.75-10.318a1.4 1.4 0 1 1 2.344 1.532"/></svg>