<svg xmlns="http://www.w3.org/2000/svg" xml:space="preserve" fill="currentColor" viewBox="0 0 32 32" class="iconset-icon_printer"><path d="M30 10h-2V2a2 2 0 0 0-2-2H6a2 2 0 0 0-2 2v8H2a2 2 0 0 0-2 2v10a2 2 0 0 0 2 2h2v6a2 2 0 0 0 2 2h20a2 2 0 0 0 2-2v-6h2a2 2 0 0 0 2-2V12a2 2 0 0 0-2-2M6 20h20v10H6zm20-2H6a2 2 0 0 0-2 2v2H2V12h28v10h-2v-2a2 2 0 0 0-2-2M6 2h20v8H6zm16 13a1 1 0 1 0 2 0 1 1 0 1 0-2 0M4 15a1 1 0 1 0 2 0 1 1 0 1 0-2 0m22 0a1 1 0 1 0 2 0 1 1 0 1 0-2 0m-2 8a1 1 0 0 0-1-1H9a1 1 0 0 0 0 2h14a1 1 0 0 0 1-1m-1 3H9a1 1 0 0 0 0 2h14a1 1 0 0 0 0-2"/></svg>