<svg xmlns="http://www.w3.org/2000/svg" fill="currentColor" viewBox="0 0 32 32" class="iconset-icon_tags_alt"><path d="M29.08 0H18.406c-.306.016-1.002.494-1.092.584L4.584 13.312c-.78.78-.78 2.044 0 2.824l1.588 1.588-1.588 1.588c-.78.78-.78 2.044 0 2.824l9.292 9.292c.39.39.9.584 1.412.584.51 0 1.022-.194 1.412-.584l12.728-12.73c.092-.09.572-.706.572-1.09V.994C30.028.436 29.628 0 29.08 0m-1.058 17.27q-.01.015-.008.016L15.29 30.016l-9.292-9.288 1.588-1.588 6.29 6.29c.39.39.9.584 1.412.584.51 0 1.022-.194 1.412-.584l11.322-11.322zm0-9.27v3.27q-.01.015-.008.016L15.29 24.016l-9.292-9.288L18.642 2.086c.038-.028.084-.058.13-.086h9.25zm-4-3.008a1 1 1080 1 0 2 0 1 1 1080 1 0-2 0"/></svg>