<svg fill="currentColor" viewBox="0 0 32 32" xmlns="http://www.w3.org/2000/svg" class="iconset-icon_lightbulb_alt"><path d="M16 0C9.384 0 4 5.374 4 11.977c0 3.86 1.88 7.505 5.032 9.751.048.034.098.066.148.096.732.429.804 1.812.788 2.066-.002.042-.004.084-.004.124v3.932c0 .75.42 1.435 1.09 1.777l4.036 2.058a2.005 2.005 0 0 0 1.812.006l4.084-2.058a1.994 1.994 0 0 0 1.098-1.783v-3.908c0-1.97 1.206-2.621 1.218-2.627.16-.074.308-.17.442-.284A11.955 11.955 0 0 0 28 11.977C28 5.374 22.616 0 16 0zm-4.036 24.016s0-.04.002-.062h8.124c0 .03-.008.052-.008.084v1.912h-8.118zM16 30.004l-4.034-2.058h8.118zm6.452-10.402s-1.34.629-2.004 2.356h-8.804c-.248-.691-.678-1.402-1.45-1.855A9.96 9.96 0 0 1 6 11.977c0-5.512 4.478-9.98 10-9.98s10 4.468 10 9.98a9.95 9.95 0 0 1-3.548 7.625zM17 3.992c-.552 0-1 .447-1 .998s.448.998 1 .998c2.25 0 5 2.042 5 5.085a1 1 0 0 0 2 0c0-4.554-3.562-7.08-7-7.08z"/></svg>