<svg xmlns="http://www.w3.org/2000/svg" xml:space="preserve" fill="currentColor" viewBox="0 0 32 32" class="iconset-icon_calulator"><path d="M6 32h20a2 2 0 0 0 2-2V2a2 2 0 0 0-2-2H6a2 2 0 0 0-2 2v28a2 2 0 0 0 2 2M6 2h20v28H6zm16 2H10a2 2 0 0 0-2 2v2a2 2 0 0 0 2 2h12a2 2 0 0 0 2-2V6a2 2 0 0 0-2-2m0 4H10V6h12zM8 14a2 2 0 1 0 4 0 2 2 0 1 0-4 0m0 6a2 2 0 1 0 4 0 2 2 0 1 0-4 0m0 6a2 2 0 1 0 4 0 2 2 0 1 0-4 0m6-12a2 2 0 1 0 4 0 2 2 0 1 0-4 0m0 6a2 2 0 1 0 4 0 2 2 0 1 0-4 0m0 6a2 2 0 1 0 4 0 2 2 0 1 0-4 0m6-12a2 2 0 1 0 4 0 2 2 0 1 0-4 0m0 6a2 2 0 1 0 4 0 2 2 0 1 0-4 0m0 6a2 2 0 1 0 4 0 2 2 0 1 0-4 0"/></svg>