<svg xmlns="http://www.w3.org/2000/svg" xml:space="preserve" fill="currentColor" viewBox="0 0 32 32" class="iconset-icon_percent_alt"><path d="M10 10.938a1.062 1.062 0 1 0 2.124 0 1.062 1.062 0 1 0-2.124 0M16 0C7.164 0 0 7.164 0 16s7.164 16 16 16 16-7.164 16-16S24.836 0 16 0M8 10.938a3.062 3.062 0 1 1 6.124 0 3.062 3.062 0 0 1-6.124 0m2.708 11.77a1.004 1.004 0 0 1-1.416 0 1 1 0 0 1 0-1.414l12-12a1 1 0 0 1 1.414 1.414zM20.938 24a3.062 3.062 0 1 1 0-6.124 3.062 3.062 0 0 1 0 6.124m-1.062-3.062a1.062 1.062 0 1 0 2.124 0 1.062 1.062 0 1 0-2.124 0"/></svg>