<svg xmlns="http://www.w3.org/2000/svg" fill="currentColor" viewBox="0 0 32 32" class="iconset-icon_quotations_alt2"><path d="M16 0C7.164 0 0 7.164 0 16s7.164 16 16 16 16-7.164 16-16S24.836 0 16 0m0 30C8.28 30 2 23.72 2 16S8.28 2 16 2s14 6.28 14 14-6.28 14-14 14m-3.186-19.224a3 3 0 0 0-.466-.33q-.008-.007-.016-.012-.015-.007-.03-.012c-.198-.11-.34-.162-.34-.162l.01.024a2.7 2.7 0 0 0-1.028-.226c-1.628 0-2.946 1.37-2.946 3.06s1.32 3.06 2.946 3.06c.522 0 1.004-.152 1.43-.4-.146 1.636-.97 4.022-3.99 6.454-.422.342-.5.974-.172 1.412.192.256.478.39.766.39a.94.94 0 0 0 .594-.212c3.706-2.99 4.632-6.062 4.756-8.114.212-2.624-.584-4.004-1.312-4.724-.066-.07-.128-.146-.202-.208m9.696 0a3 3 0 0 0-.466-.33l-.016-.012q-.015-.007-.03-.012c-.198-.108-.34-.162-.34-.162l.01.024a2.7 2.7 0 0 0-1.028-.226c-1.628 0-2.946 1.37-2.946 3.06s1.318 3.06 2.946 3.06c.522 0 1.004-.152 1.43-.4-.146 1.636-.97 4.022-3.99 6.454-.424.342-.5.974-.172 1.412.192.256.478.39.766.39a.94.94 0 0 0 .594-.212c3.706-2.99 4.632-6.062 4.756-8.114.212-2.624-.586-4.004-1.312-4.724-.066-.07-.128-.146-.202-.208"/></svg>