<svg xmlns="http://www.w3.org/2000/svg" fill="currentColor" viewBox="0 0 32 32" class="iconset-icon_check_alt2"><path d="M16.084 0c-8.836 0-16 7.164-16 16s7.164 16 16 16 16-7.164 16-16-7.164-16-16-16m0 30c-7.72 0-14-6.28-14-14s6.28-14 14-14 14 6.28 14 14-6.282 14-14 14m7.008-20.364a1.4 1.4 0 0 0-1.938.406L14.402 20.36l-3.228-2.988c-.568-.524-1.454-.49-1.98.078s-.49 1.452.078 1.978l4.462 4.128c.016.014.036.018.052.032.04.032.064.076.106.106.06.04.128.048.192.076.076.036.15.07.23.092q.115.029.234.036.17.019.336-.004.068-.013.136-.032.205-.05.392-.164c.022-.014.04-.03.062-.044.082-.056.17-.098.24-.174.05-.054.072-.124.112-.184q.004-.003.006-.006l7.664-11.714a1.4 1.4 0 0 0-.404-1.94"/></svg>