<svg xmlns="http://www.w3.org/2000/svg" fill="currentColor" viewBox="0 0 32 32" class="iconset-icon_quotations"><path d="M7.998 13.118c0 1.69 1.32 3.06 2.946 3.06.522 0 1.004-.152 1.43-.4-.146 1.636-.97 4.022-3.99 6.454-.422.342-.5.974-.172 1.412.192.256.478.39.766.39a.94.94 0 0 0 .594-.212c3.706-2.99 4.632-6.062 4.756-8.114.212-2.624-.584-4.004-1.312-4.724-.066-.07-.128-.146-.202-.208a3 3 0 0 0-.466-.33q-.008-.007-.016-.012-.015-.007-.03-.012c-.198-.11-.34-.162-.34-.162l.01.024a2.7 2.7 0 0 0-1.028-.226c-1.628 0-2.946 1.37-2.946 3.06m9.696 0c0 1.69 1.318 3.06 2.946 3.06.522 0 1.004-.152 1.43-.4-.146 1.636-.97 4.022-3.99 6.454-.424.342-.5.974-.172 1.412.192.256.478.39.766.39a.94.94 0 0 0 .594-.212c3.706-2.99 4.632-6.062 4.756-8.114.212-2.624-.586-4.004-1.312-4.724-.068-.07-.13-.146-.204-.208a3 3 0 0 0-.466-.33l-.016-.012q-.015-.008-.03-.012c-.198-.108-.34-.162-.34-.162l.01.024a2.7 2.7 0 0 0-1.028-.226c-1.626 0-2.944 1.37-2.944 3.06"/></svg>