<svg xmlns="http://www.w3.org/2000/svg" fill="currentColor" viewBox="0 0 32 32" class="iconset-icon_gift_alt"><path d="M30 8H2a2 2 0 0 0-2 2v6h2v14a2 2 0 0 0 2 2h24a2 2 0 0 0 2-2V16h2v-6a2 2 0 0 0-2-2M2 10h12v4H2zm2 20V16h10v14zm24 0h-9.958V16H28zm2-16H18.042v-4H30zM16 6l-.002-.016h.006zh8c2.762 0 4-1.344 4-3s-1.238-3-4-3c-2.586 0-4.622 1.164-6 2.514a4 4 0 0 0-2.058-.576c-.724 0-1.394.204-1.982.536C12.584 1.14 10.56 0 8 0 5.238 0 4 1.344 4 3s1.238 3 4 3zm10-3c0 .826-1.088 1-2 1h-4.542q-.023-.043-.046-.084C20.428 2.928 21.968 2 24 2c.912 0 2 .174 2 1M6 3c0-.826 1.088-1 2-1 1.988 0 3.496.89 4.512 1.844-.032.05-.056.104-.086.156H8c-.912 0-2-.174-2-1"/></svg>