<svg xmlns="http://www.w3.org/2000/svg" fill="currentColor" viewBox="0 0 32 32" class="iconset-icon_genius"><path d="M2.544 24.656c.48.746 1.488 1.634 3.568 1.634 1.308 0 2.982-.382 4.846-1.048C11.764 28.794 13.246 32 16 32c2.8 0 4.288-3.316 5.084-6.942 1.868.632 3.548.996 4.862.996 2.2 0 3.232-.936 3.712-1.72 1.552-2.544-.87-5.774-3.794-8.444.54-.52 1.048-1.04 1.494-1.546 2.528-2.878 3.234-5.232 2.098-7-.48-.746-1.488-1.634-3.568-1.634-1.308 0-2.982.382-4.846 1.048C20.236 3.206 18.754 0 16 0c-2.8 0-4.288 3.316-5.084 6.942-1.868-.634-3.548-.996-4.862-.996-2.2 0-3.234.936-3.712 1.72-1.552 2.544.87 5.774 3.794 8.444-.54.522-1.048 1.04-1.494 1.546-2.528 2.878-3.234 5.234-2.098 7M16 30c-1.294 0-2.442-2.162-3.174-5.5a40 40 0 0 0 3.254-1.59 41 41 0 0 0 3.124 1.442C18.476 27.774 17.314 30 16 30m-4-14c0-.734.022-1.45.052-2.154a49 49 0 0 1 1.784-1.21 50 50 0 0 1 2.108-1.276c.706.384 1.418.786 2.138 1.224q.964.593 1.862 1.2c.034.724.056 1.46.056 2.216 0 .734-.022 1.45-.052 2.154a49 49 0 0 1-1.784 1.21 50 50 0 0 1-2.108 1.276 51 51 0 0 1-2.138-1.224 51 51 0 0 1-1.862-1.2A47 47 0 0 1 12 16m-1.99.752a42 42 0 0 1-.858-.67q.415-.351.854-.702c-.004.268-.006.494-.006.62 0 .146.004.422.01.752m2.224-5.444q.087-.852.204-1.65c.456.194.922.408 1.398.632-.36.22-.72.43-1.082.662-.18.118-.342.24-.52.356m5.796-1.068q.773-.39 1.514-.724c.084.566.156 1.156.218 1.762a42 42 0 0 0-.636-.4c-.366-.224-.732-.426-1.096-.638m3.96 5.008q.443.337.858.67-.415.35-.856.702c.006-.268.008-.494.008-.62 0-.146-.004-.422-.01-.752m-2.224 5.444q-.086.854-.202 1.65a39 39 0 0 1-1.398-.632c.36-.22.72-.43 1.082-.662.178-.118.34-.24.518-.356m-6.892.43c.366.224.73.426 1.096.638q-.774.39-1.514.724a39 39 0 0 1-.218-1.762c.278.176.512.324.636.4m15.076 2.17c-.316.516-1.016.762-2.004.762-1.154 0-2.712-.352-4.488-.976.212-1.372.344-2.712.422-3.856.894-.66 1.72-1.328 2.502-2 2.822 2.562 4.29 4.888 3.568 6.07M25.888 7.71c.916 0 1.574.23 1.886.716.75 1.166-.666 3.528-3.43 6.158-.86-.7-1.708-1.34-2.472-1.882a45 45 0 0 0-.444-3.962c1.774-.658 3.324-1.03 4.46-1.03M16 2c1.294 0 2.442 2.162 3.174 5.5-1.052.454-2.14.984-3.254 1.59a41 41 0 0 0-3.124-1.442C13.524 4.226 14.686 2 16 2M4.05 8.708c.316-.516 1.016-.762 2.004-.762 1.154 0 2.712.352 4.488.976a45 45 0 0 0-.422 3.856c-.894.66-1.72 1.328-2.502 2-2.822-2.562-4.29-4.888-3.568-6.07m6.076 10.588c.082 1.18.218 2.556.444 3.962-1.772.658-3.322 1.03-4.458 1.03-.916 0-1.574-.23-1.886-.716-.75-1.166.666-3.528 3.43-6.158.858.7 1.706 1.342 2.47 1.882"/></svg>