<svg xmlns="http://www.w3.org/2000/svg" xml:space="preserve" fill="currentColor" viewBox="0 0 32 32" class="iconset-icon_calculator_alt"><path d="M6 32h20a2 2 0 0 0 2-2V2a2 2 0 0 0-2-2H6a2 2 0 0 0-2 2v28a2 2 0 0 0 2 2m16-10a2 2 0 1 1 .001-4.001A2 2 0 0 1 22 22m2 4a2 2 0 1 1-4.001-.001A2 2 0 0 1 24 26m-2-10a2 2 0 1 1 .001-4.001A2 2 0 0 1 22 16M8 8V4h16v4zm8 14a2 2 0 1 1 .001-4.001A2 2 0 0 1 16 22m2 4a2 2 0 1 1-4.001-.001A2 2 0 0 1 18 26m-2-10a2 2 0 1 1 .001-4.001A2 2 0 0 1 16 16m-6-4a2 2 0 1 1-.001 4.001A2 2 0 0 1 10 12m0 6a2 2 0 1 1-.001 4.001A2 2 0 0 1 10 18m0 6a2 2 0 1 1-.001 4.001A2 2 0 0 1 10 24"/></svg>