<svg xmlns="http://www.w3.org/2000/svg" xml:space="preserve" fill="currentColor" viewBox="0 0 32 32" class="iconset-icon_id"><path d="M30 6H2a2 2 0 0 0-2 2v18a2 2 0 0 0 2 2h28a2 2 0 0 0 2-2V8a2 2 0 0 0-2-2M2 8h28v18H2zm25.166 8H15a1 1 0 0 0 0 2h12.166a1 1 0 0 0 0-2m0 4H15a1 1 0 0 0 0 2h12.166a1 1 0 0 0 0-2m0-8H15a1 1 0 0 0 0 2h12.166a1 1 0 0 0 0-2m-21.586.416a2.416 2.416 0 1 0 4.832 0 2.416 2.416 0 1 0-4.832 0m2.468 3.382c-2.184 0-3.952 2.372-3.952 5.3s7.904 2.926 7.904 0-1.77-5.3-3.952-5.3"/></svg>