<svg xmlns="http://www.w3.org/2000/svg" fill="currentColor" viewBox="0 0 32 32" class="iconset-icon_tags"><path d="M29.058 0h-.054q-.023-.001-.046 0H18.384c-.306.016-1.002.494-1.092.584L4.562 13.312c-.78.78-.78 2.044 0 2.824l1.588 1.588-1.588 1.588c-.78.78-.78 2.044 0 2.824l9.292 9.292c.39.39.9.584 1.412.584s1.022-.194 1.412-.584l12.728-12.73c.092-.09.594-.706.594-1.09V.994A.93.93 0 0 0 29.058 0M27 1.992a1 1 0 1 1 0 2 1 1 0 0 1 0-2m.994 15.294L15.27 30.016l-9.292-9.288 1.588-1.588 6.29 6.29c.39.39.9.584 1.412.584s1.022-.194 1.412-.584L28 14.108v3.162q-.01.015-.006.016-.003 0 0 0"/></svg>