<svg xmlns="http://www.w3.org/2000/svg" fill="currentColor" viewBox="0 0 32 32" class="iconset-social_twitter"><path d="M31.118 3.48a13.2 13.2 0 0 1-4.17 1.594A6.55 6.55 0 0 0 22.156 3a6.566 6.566 0 0 0-6.396 8.06A18.64 18.64 0 0 1 2.228 4.2a6.5 6.5 0 0 0-.888 3.3 6.56 6.56 0 0 0 2.92 5.464 6.6 6.6 0 0 1-2.974-.824v.082a6.57 6.57 0 0 0 5.266 6.438 6.6 6.6 0 0 1-2.966.112 6.57 6.57 0 0 0 6.132 4.56 13.18 13.18 0 0 1-8.154 2.81q-.795-.001-1.566-.092A18.6 18.6 0 0 0 10.062 29c12.076 0 18.68-10.004 18.68-18.68q0-.427-.02-.85a13.2 13.2 0 0 0 3.28-3.394 13.1 13.1 0 0 1-3.77 1.034 6.59 6.59 0 0 0 2.886-3.63"/></svg>