<svg xmlns="http://www.w3.org/2000/svg" fill="currentColor" viewBox="0 0 32 32" class="iconset-social_picassa_square"><path d="M26 0H6a6 6 0 0 0-6 6v20a6 6 0 0 0 6 6h20a6 6 0 0 0 6-6V6a6 6 0 0 0-6-6M16 4c1.592 0 3.11.31 4.5.872v8.368l-8.542-8.542A12 12 0 0 1 16 4M4 16c0-4.534 2.512-8.478 6.222-10.52l3.768 3.77-9.64 9.638A12 12 0 0 1 4 16m6 10.394a12.03 12.03 0 0 1-5.012-5.622L10 15.76zM16 28c-1.592 0-3.11-.31-4.5-.874V22h14.894A12 12 0 0 1 16 28m11.126-7.5H22V5.606c3.586 2.076 6 5.952 6 10.394 0 1.592-.31 3.11-.874 4.5"/></svg>