<svg fill="currentColor" viewBox="0 0 32 32" xmlns="http://www.w3.org/2000/svg" class="iconset-social_mastodon"><path d="M22.379 24.39c4.032-.48 7.54-2.95 7.98-5.206.696-3.556.64-8.678.64-8.678 0-6.94-4.572-8.976-4.572-8.976C24.123.476 20.165.034 16.053 0h-.1C11.84.034 7.883.476 5.58 1.53c0 0-4.57 2.034-4.57 8.976l-.004 1.324c-.008 1.28-.014 2.7.022 4.182.166 6.788 1.252 13.48 7.56 15.14 2.908.766 5.405.926 7.417.816 3.646-.2 5.694-1.294 5.694-1.294l-.12-2.634s-2.606.82-5.534.72c-2.9-.1-5.96-.312-6.43-3.856a7.228 7.228 0 0 1-.065-.992s2.847.692 6.455.856c2.206.1 4.274-.128 6.376-.378zm3.226-4.94h-3.346v-8.16c0-1.718-.728-2.59-2.182-2.59-1.608 0-2.414 1.034-2.414 3.082v4.466h-3.328V11.78c0-2.048-.806-3.082-2.413-3.082-1.454 0-2.182.872-2.182 2.592v8.158H6.394v-8.404c0-1.718.44-3.082 1.32-4.092.912-1.01 2.104-1.528 3.586-1.528 1.711 0 3.007.656 3.865 1.966L16 8.78l.834-1.39c.858-1.31 2.154-1.966 3.868-1.966 1.48 0 2.672.518 3.582 1.528.884 1.01 1.322 2.374 1.322 4.092z"/></svg>