<svg xmlns="http://www.w3.org/2000/svg" fill="currentColor" viewBox="0 0 32 32" class="iconset-social_dribbble_circle"><path d="M19.728 17.202c1.338 3.676 1.882 6.67 1.986 7.292a10.25 10.25 0 0 0 4.384-6.856c-.348-.11-3.164-.95-6.37-.436m-1.982.496c-5.768 2.01-7.84 6.012-8.024 6.388A10.18 10.18 0 0 0 16 26.244c1.418.002 2.77-.288 3.996-.812-.152-.898-.746-4.026-2.182-7.756q-.035.01-.068.022m.458-4.118a32 32 0 0 1 .898 2.01c3.404-.428 6.786.258 7.122.33a10.17 10.17 0 0 0-2.308-6.372c-.214.29-1.928 2.488-5.712 4.032m-1.49 2.524q.201-.065.402-.12a34 34 0 0 0-.828-1.736c-5.108 1.528-10.066 1.464-10.514 1.454q-.004.156-.004.312a10.2 10.2 0 0 0 2.63 6.84c.232-.396 3.038-5.044 8.314-6.75m-1.27-3.43a65 65 0 0 0-3.792-5.916 10.26 10.26 0 0 0-5.664 7.162c.458.006 4.672.024 9.456-1.246m7.336-4.31A10.2 10.2 0 0 0 16 5.786c-.824 0-1.628.098-2.396.284.282.38 2.14 2.91 3.816 5.988 3.638-1.362 5.176-3.432 5.36-3.694M16 0C7.164 0 0 7.164 0 16s7.164 16 16 16 16-7.164 16-16c0-8.838-7.164-16-16-16m0 27.974C9.398 27.974 4.026 22.602 4.026 16S9.398 4.026 16 4.026 27.974 9.398 27.974 16 22.602 27.974 16 27.974"/></svg>