<svg xmlns="http://www.w3.org/2000/svg" fill="currentColor" viewBox="0 0 32 32" class="iconset-social_rss_circle"><path d="M16 0C7.164 0 0 7.164 0 16s7.164 16 16 16 16-7.164 16-16c0-8.838-7.164-16-16-16M8.63 25.952a2.6 2.6 0 0 1-2.606-2.596 2.61 2.61 0 0 1 2.606-2.602 2.613 2.613 0 0 1 2.61 2.602 2.6 2.6 0 0 1-2.61 2.596m6.548.024c0-2.454-.954-4.76-2.682-6.486a9.08 9.08 0 0 0-6.468-2.688V13.05c7.122 0 12.92 5.798 12.92 12.926zm6.658-.002c0-8.724-7.09-15.822-15.804-15.822V6.4C16.82 6.4 25.6 15.184 25.6 25.974z"/></svg>