<svg xmlns="http://www.w3.org/2000/svg" fill="currentColor" viewBox="0 0 32 32" class="iconset-social_deviantart"><path d="M22.742 10.448c-3.582-.84-7.462-.804-11.436-.204q-.215.033-.428.068l-1.32-2.446c-1.286.172-2.494.44-3.612.796l1.258 2.632c-2.056.796-3.742 1.93-4.958 3.294-2.008 2.28-2.802 5.15-1.838 7.946a7.4 7.4 0 0 0 .78 1.6l14.94-4.104-4.148-7.682q.213-.042.436-.082c6.708-1.196 10.378.652 12.388 2.62l-5.112 1.24-2.134-3.41c-1.22-.072-2.628.002-4.258.28l3.76 6.778L32 15.672a4.2 4.2 0 0 0-.708-1.118c-1.546-1.79-4.898-3.386-8.55-4.106M5.46 19.572c-.462-2.104-.094-4.454 2.826-6.018l2.286 4.78z"/></svg>