<svg fill="currentColor" viewBox="0 0 32 32" xml:space="preserve" xmlns="http://www.w3.org/2000/svg" class="iconset-social_github"><path d="M16.013 0C7.158 0 0 7.333 0 16.406c0 7.252 4.587 13.391 10.949 15.563.796.163 1.087-.353 1.087-.787 0-.38-.026-1.684-.026-3.043-4.455.978-5.382-1.955-5.382-1.955-.716-1.902-1.777-2.39-1.777-2.39-1.458-1.005.106-1.005.106-1.005 1.617.108 2.466 1.684 2.466 1.684 1.431 2.498 3.738 1.792 4.666 1.358.132-1.06.557-1.793 1.008-2.2-3.553-.38-7.291-1.793-7.291-8.095 0-1.792.636-3.259 1.643-4.4-.159-.407-.716-2.091.16-4.346 0 0 1.352-.434 4.4 1.684a15.396 15.657 0 0 1 4.004-.543c1.352 0 2.73.19 4.003.543 3.049-2.118 4.401-1.684 4.401-1.684.875 2.255.318 3.94.159 4.346 1.034 1.141 1.644 2.608 1.644 4.4 0 6.302-3.738 7.687-7.318 8.095.584.516 1.087 1.493 1.087 3.042 0 2.2-.026 3.965-.026 4.508 0 .435.292.951 1.087.788 6.363-2.173 10.949-8.311 10.949-15.564C32.025 7.333 24.841 0 16.012 0z"/></svg>