<svg xmlns="http://www.w3.org/2000/svg" fill="currentColor" viewBox="0 0 32 32" class="iconset-social_xing_square"><path d="M6 0a6 6 0 0 0-6 6v20a6 6 0 0 0 6 6h20a6 6 0 0 0 6-6V6a6 6 0 0 0-6-6zm17.047 5.313h4.002q.356 0 .506.183.179.209 0 .488L18.81 18.048l5.574 7.967q.178.253 0 .463-.148.208-.535.209h-3.944q-.68.002-1.097-.578l-5.604-8.06q.296-.419 8.776-12.159.413-.577 1.066-.578zM6.445 9.523h3.973q.652 0 1.097.58l2.698 3.684c-.1.155-1.51 2.122-4.239 5.904q-.445.579-1.097.58H4.935q-.355.001-.504-.209-.15-.206 0-.464l4.18-5.787q.03 0 0-.024l-2.67-3.59q-.207-.301 0-.488.15-.186.504-.186z" color="currentColor"/></svg>