<svg xmlns="http://www.w3.org/2000/svg" fill="currentColor" viewBox="0 0 32 32" class="iconset-social_myspace_square"><path d="M26 0H6a6 6 0 0 0-6 6v20a6 6 0 0 0 6 6h20a6 6 0 0 0 6-6V6a6 6 0 0 0-6-6m-9.432 7.984q.258-.586.698-1.028a3.3 3.3 0 0 1 1.028-.7A3.1 3.1 0 0 1 19.564 6q.686-.001 1.27.256.585.255 1.026.7.444.442.7 1.028.258.584.258 1.27t-.258 1.27q-.256.584-.7 1.028a3.4 3.4 0 0 1-1.026.7 3.1 3.1 0 0 1-1.27.256q-.684 0-1.27-.256a3.4 3.4 0 0 1-1.028-.7 3.4 3.4 0 0 1-.698-1.028 3.1 3.1 0 0 1-.258-1.27q0-.686.258-1.27m-5.066-.516a2.4 2.4 0 0 1 1.754-.726q1.057 0 1.784.726.729.729.728 1.758 0 1.056-.73 1.784-.724.726-1.782.726a2.4 2.4 0 0 1-1.754-.728 2.43 2.43 0 0 1-.73-1.784q.002-1.026.73-1.756m-4.366.458q.556-.558 1.354-.558.8 0 1.342.558.54.555.54 1.326-.002.8-.54 1.356a1.8 1.8 0 0 1-1.342.558q-.798 0-1.354-.556a1.85 1.85 0 0 1-.558-1.356q0-.772.558-1.328M24 26h-8.79v-4H9.704v-4H6.418v-3.638c0-.646-.016-1.194.432-1.64q.67-.67 1.64-.67.83 0 1.428.5c.4.334.664.746.8 1.242q.485-.569 1.14-.886a3.2 3.2 0 0 1 1.398-.314q1.17 0 2.042.7.87.7 1.156 1.754.598-.572 1.4-.912a4.3 4.3 0 0 1 1.712-.342q.915 0 1.728.342.811.342 1.412.942t.954 1.412c.238.54.34 1.116.34 1.726z"/></svg>