<svg xmlns="http://www.w3.org/2000/svg" fill="currentColor" viewBox="0 0 32 32" class="iconset-social_xing"><path d="M13.545 12.959q-.204.317-5.825 8.113-.611.796-1.508.797H.795q-.488 0-.692-.287-.206-.285 0-.637l5.743-7.954q.039 0 0-.032L2.179 8.025c-.189-.274-.189-.5 0-.669.138-.17.366-.255.693-.255H8.33q.896 0 1.508.797zM31.878 1.567q.244.286 0 .67l-12.015 16.58 7.66 10.947q.245.348 0 .636c-.138.19-.38.288-.735.288h-5.42q-.936 0-1.509-.797L12.16 18.816q.406-.574 12.058-16.707.57-.795 1.466-.796h5.498q.49 0 .696.254"/></svg>