<svg xmlns="http://www.w3.org/2000/svg" fill="currentColor" viewBox="0 0 32 32" class="iconset-social_myspace"><path d="M15.796 8.014q1.165-1.165 1.166-2.854-.001-1.645-1.166-2.81c-.774-.774-1.73-1.162-2.856-1.162q-1.64 0-2.806 1.162-1.165 1.167-1.166 2.81.001 1.69 1.166 2.854 1.168 1.164 2.806 1.164c1.126 0 2.082-.388 2.856-1.164m3.562.868q.708.707 1.644 1.118a5 5 0 0 0 2.032.41q1.097-.001 2.032-.41a5.4 5.4 0 0 0 1.644-1.118 5.3 5.3 0 0 0 1.12-1.644q.412-.934.412-2.034.001-1.094-.412-2.032a5.3 5.3 0 0 0-1.12-1.644A5.3 5.3 0 0 0 25.066.41 5 5 0 0 0 23.034 0c-.728 0-1.408.136-2.032.41a5.3 5.3 0 0 0-2.762 2.764 5 5 0 0 0-.412 2.032q0 1.097.412 2.034a5.4 5.4 0 0 0 1.118 1.642M5.314 8.266q1.28 0 2.148-.89.866-.893.866-2.172-.001-1.234-.866-2.122-.868-.891-2.148-.892c-.85 0-1.576.298-2.166.892q-.893.889-.892 2.122 0 1.28.892 2.17.89.892 2.166.892m22.746 6.256a7 7 0 0 0-2.26-1.508 7.1 7.1 0 0 0-2.766-.548q-1.462 0-2.738.548a7.5 7.5 0 0 0-2.238 1.462q-.457-1.687-1.85-2.808t-3.268-1.12q-1.186 0-2.238.502a5.5 5.5 0 0 0-1.822 1.416A3.86 3.86 0 0 0 7.6 10.48q-.957-.8-2.286-.798-1.552 0-2.624 1.072c-.716.714-.69 1.592-.69 2.626v6.402h5.258v5.242h8.81V32h14.064V19.544c0-.974-.162-1.896-.544-2.762a7.3 7.3 0 0 0-1.528-2.26"/></svg>