<svg xmlns="http://www.w3.org/2000/svg" fill="currentColor" viewBox="0 0 32 32" class="iconset-social_xing_circle"><path d="M16 0C7.164 0 0 7.164 0 16s7.164 16 16 16 16-7.164 16-16c0-8.838-7.164-16-16-16m5.879 7.082h3.338q.297 0 .424.156.148.174 0 .406l-7.295 10.064 4.65 6.647q.15.21 0 .387-.124.174-.447.175h-3.29q-.567.001-.915-.484l-4.676-6.724q.247-.348 7.322-10.143.345-.484.889-.485zm-13.85 3.516h3.314q.545-.001.916.482l2.25 3.074q-.124.194-3.537 4.926-.371.482-.916.482H6.77q-.296.001-.422-.173-.125-.172 0-.387l3.489-4.828q.023 0 0-.02l-2.227-2.996q-.173-.25 0-.406.124-.154.42-.154"/></svg>