<svg xmlns="http://www.w3.org/2000/svg" fill="currentColor" viewBox="0 0 32 32" class="iconset-social_twitter_circle"><path d="M16 0C7.164 0 0 7.164 0 16s7.164 16 16 16 16-7.164 16-16c0-8.838-7.164-16-16-16m7.96 12.408q.012.255.012.51c0 5.206-3.962 11.208-11.208 11.208-2.224 0-4.294-.652-6.038-1.77q.463.055.94.056c1.846 0 3.544-.63 4.892-1.686a3.95 3.95 0 0 1-3.68-2.736 3.94 3.94 0 0 0 1.78-.068 3.94 3.94 0 0 1-3.16-3.862v-.05a3.9 3.9 0 0 0 1.784.494 3.94 3.94 0 0 1-1.752-3.278c0-.722.194-1.398.532-1.98a11.18 11.18 0 0 0 8.12 4.116 3.94 3.94 0 0 1 6.714-3.592 8 8 0 0 0 2.502-.956 3.95 3.95 0 0 1-1.732 2.18 7.9 7.9 0 0 0 2.262-.62 8 8 0 0 1-1.968 2.034"/></svg>