<svg xmlns="http://www.w3.org/2000/svg" viewBox="0 0 502.155 502.155"><path d="M390.974 27.086a7.04 7.04 0 00-4.053-1.407 104.251 104.251 0 00-16.091-12.022c-14.269-8.393-27.698-12.59-41.128-13.43-68.826-2.518-116.669 15.948-138.492 53.718l-2.518 3.357c-4.197 7.554-9.233 15.108-14.269 22.662L113.99 185.721c-17.626 31.056-34.413 57.075-52.039 78.898-18.466 23.502-38.61 61.272-31.895 109.954 5.806 38.707 31.457 69.461 66.641 83.536l24.848 25.579.839.839c10.911 8.393 23.502 14.269 35.252 15.948 5.875.839 11.751 1.679 17.626 1.679 20.144 0 41.128-5.036 62.951-16.787 33.574-16.787 61.272-45.325 80.577-80.577l36.931-68.826c5.036-10.072 13.429-18.466 23.502-26.02 52.039-36.931 86.452-130.938 88.131-135.974 31.896-81.415-72.183-144.366-76.38-146.884zm-344.97 344.97c-5.875-42.807 12.59-76.38 28.538-97.364 18.466-22.662 36.092-48.682 53.718-80.577l60.433-104.918c5.036-7.554 10.072-15.948 14.269-23.502l2.518-4.197c17.626-29.377 56.236-45.325 112.472-45.325h10.911c10.072.839 20.984 4.197 31.895 10.911a84.473 84.473 0 0117.417 13.465c.303.564.652 1.115 1.049 1.643 5.036 5.036 9.233 10.911 12.59 16.787l.839 1.679c.839 2.518 2.518 5.036 3.357 7.554l.048.012a72.591 72.591 0 013.309 11.739c3.357 13.43 4.197 27.698 3.357 40.289-1.679 22.662-10.911 44.485-26.859 62.112l-83.095 92.328-53.718 73.023c-10.072 13.43-21.823 30.216-31.056 47.843-10.719 20.417-26.096 36.164-42.917 45.003-8.87 4.46-17.95 7.036-26.748 7.036h-5.036c-10.911-.839-20.984-3.357-31.056-7.554a10.328 10.328 0 00-4.913-.007c-27.408-12.498-47.068-37.594-51.322-67.98zm406.242-204.799c-.839.839-34.413 94.007-82.256 128.42-12.59 9.233-21.823 19.305-28.538 31.895l-36.931 68.826c-17.626 32.734-42.807 57.915-73.862 73.862-24.341 12.59-48.682 16.787-70.505 13.43-9.233-.839-18.466-5.036-27.698-11.751l-6.346-6.346c1.546.185 3.101.344 4.667.471h5.036c25.34 0 51.155-13.873 70.955-37.275 6.592-7.549 12.39-16.105 17.175-25.675l.001-.001c9.233-16.787 20.144-31.895 29.377-45.325l53.718-70.505 82.256-92.328c18.466-20.984 29.377-46.164 31.056-72.184.839-15.108 0-30.216-3.357-45.325a97.425 97.425 0 00-3.859-13.122c25.943 23.524 55.826 61.147 39.111 102.933z"/><path d="M278.502 125.289c18.466 0 33.574-15.108 33.574-33.574s-15.108-33.574-33.574-33.574-33.574 15.108-33.574 33.574 15.108 33.574 33.574 33.574zm0-50.36c9.233 0 16.787 7.554 16.787 16.787s-7.554 16.787-16.787 16.787-16.787-7.554-16.787-16.787 7.554-16.787 16.787-16.787zM236.535 276.371c18.466 0 33.574-15.108 33.574-33.574S255 209.224 236.535 209.224s-33.574 15.108-33.574 33.574 15.108 33.573 33.574 33.573zm0-50.36c9.233 0 16.787 7.554 16.787 16.787s-7.554 16.787-16.787 16.787-16.787-7.554-16.787-16.787 7.554-16.787 16.787-16.787zM102.24 368.699c18.466 0 33.574-15.108 33.574-33.574s-15.108-33.574-33.574-33.574-33.574 15.108-33.574 33.574 15.108 33.574 33.574 33.574zm0-50.361c9.233 0 16.787 7.554 16.787 16.787s-7.554 16.787-16.787 16.787-16.787-7.554-16.787-16.787 7.554-16.787 16.787-16.787zM202.961 158.863c5.036 0 8.393-3.357 8.393-8.393 0-4.197-3.357-8.393-8.393-8.393s-8.393 3.357-8.393 8.393 3.357 8.393 8.393 8.393zM186.174 335.125c5.036 0 8.393-3.357 8.393-8.393 0-4.197-3.357-8.393-8.393-8.393s-8.393 3.357-8.393 8.393 3.357 8.393 8.393 8.393zM396.01 209.224c-5.036 0-8.393 3.357-8.393 8.393s3.357 8.393 8.393 8.393c5.036 0 8.393-3.357 8.393-8.393.001-4.197-3.357-8.393-8.393-8.393zM295.289 343.519c-5.036 0-8.393 3.357-8.393 8.393 0 5.036 3.357 8.393 8.393 8.393s8.393-3.357 8.393-8.393c0-4.197-3.357-8.393-8.393-8.393z"/></svg>