<svg class="iconset" fill="currentColor" version="1.1" viewBox="0 0 32 32" xmlns="http://www.w3.org/2000/svg">
  <g transform="matrix(-.53427 .53427 -.53427 -.53427 33.097 16)">
    <path d="m29.708 2.292c-0.39-0.39-1.024-0.39-1.414 0l-8.294 8.294v-5.586c0-0.552-0.448-1-1-1s-1 0.448-1 1v8 4e-3c0 0.128 0.028 0.256 0.078 0.378 0.048 0.118 0.12 0.224 0.208 0.314l6e-3 0.012c4e-3 2e-3 6e-3 2e-3 8e-3 4e-3 0.09 0.088 0.198 0.162 0.316 0.21 0.124 0.052 0.254 0.078 0.384 0.078h8c0.552 0 1-0.448 1-1s-0.448-1-1-1h-5.586l8.292-8.292c0.392-0.392 0.392-1.024 2e-3 -1.416zm-27.416 27.416c0.39 0.39 1.024 0.39 1.414 0l8.294-8.294v5.586c0 0.552 0.448 1 1 1s1-0.448 1-1v-8c0-0.13-0.026-0.26-0.078-0.382-0.102-0.244-0.296-0.44-0.54-0.54-0.122-0.052-0.252-0.078-0.382-0.078h-8c-0.552 0-1 0.448-1 1s0.448 1 1 1h5.586l-8.292 8.292c-0.392 0.392-0.392 1.024-2e-3 1.416z"/>
  </g>
</svg>
