<svg class="iconset" fill="currentColor" version="1.1" viewBox="0 0 32 32" xmlns="http://www.w3.org/2000/svg">
  <g transform="matrix(-.51901 .51901 -.51901 -.51901 32.608 16)">
    <path d="m30 0h-28c-1.104 0-2 0.896-2 2v28c0 1.104 0.896 2 2 2h28c1.104 0 2-0.896 2-2v-28c0-1.104-0.896-2-2-2zm-16 19v8c0 0.552-0.448 1-1 1s-1-0.448-1-1v-5.586l-6.292 6.292c-0.39 0.39-1.024 0.39-1.414 0s-0.39-1.024 0-1.414l6.292-6.292h-5.586c-0.552 0-1-0.448-1-1s0.448-1 1-1h8c0.13 0 0.26 0.026 0.382 0.078 0.244 0.102 0.44 0.296 0.54 0.54 0.052 0.122 0.078 0.252 0.078 0.382zm13-7c0.552 0 1 0.448 1 1s-0.448 1-1 1h-8c-0.13 0-0.26-0.026-0.382-0.078-0.12-0.048-0.226-0.12-0.318-0.21-2e-3 -2e-3 -4e-3 -2e-3 -8e-3 -4e-3l-6e-3 -0.012c-0.088-0.09-0.16-0.196-0.208-0.314-0.05-0.122-0.078-0.25-0.078-0.378v-4e-3 -8c0-0.552 0.448-1 1-1s1 0.448 1 1v5.586l6.292-6.292c0.39-0.39 1.024-0.39 1.414 0s0.39 1.024 0 1.414l-6.292 6.292z"/>
  </g>
</svg>
