<svg focusable="false" version="1.1" viewBox="0 0 32 32" xmlns="http://www.w3.org/2000/svg">
    <g fill="currentColor">
        <path d="m16 10.005c-5.3458 0-8.022 6.4628-4.2424 10.242s10.242 1.1034 10.242-4.2424c0-3.3137-2.6863-6-6-6z" />
        <path d="M5.394 6.813l1.414-1.415l3.506 3.506L8.9 10.318z" />
        <path d="M2 15.005h5v2H2z" />
        <path d="m5.394 25.197 3.506-3.506 1.414 1.415-3.506 3.505z" />
        <path d="m15 25.005h2v5h-2z" />
        <path d="m21.687 23.106 1.414-1.415 3.506 3.506-1.414 1.414z" />
        <path d="m25 15.005h5v2h-5z" />
        <path d="m21.687 8.904 3.506-3.506 1.414 1.415-3.506 3.505z" />
        <path d="m15 2.005h2v5h-2z" />
    </g>
</svg>
