<svg xmlns="http://www.w3.org/2000/svg" fill="currentColor" version="1.1" viewBox="0 0 32 32">
  <g transform="translate(-1,-1)">
    <path d="m17 2c-8.284 0-15 6.716-15 15s6.716 15 15 15 15-6.716 15-15-6.716-15-15-15zm0 28c-7.168 0-13-5.832-13-13s5.832-13 13-13 13 5.832 13 13-5.832 13-13 13zm5.536-19.95-5.498 5.498-4.93-5.498c-0.39-0.39-1.024-0.39-1.414 0s-0.39 1.024 0 1.414l4.932 5.498-5.574 5.574c-0.39 0.39-0.39 1.024 0 1.414s1.024 0.39 1.414 0l5.498-5.498 4.932 5.498c0.39 0.39 1.024 0.39 1.414 0s0.39-1.024 0-1.414l-4.934-5.498 5.574-5.574c0.39-0.39 0.39-1.024 0-1.414s-1.024-0.39-1.414 0z"/>
  </g>
</svg>
