<svg fill="currentColor" version="1.1" viewBox="0 0 32 32" xmlns="http://www.w3.org/2000/svg">
    <path d="m26 26h-20v-20h9.1015l2.0224-2h-11.124c-1.104 0-2 0.896-2 2v20c0 1.104 0.896 2 2 2h20c1.104 0 2-0.896 2-2v-11.653l-2 2.4557z" />
    <g transform="matrix(.71751 .70992 -.71751 .70992 44.856 -24.166)" fill="currentColor">
        <path d="m7.9528 53.298c0.55487-0.0029 1.0075-0.45554 1.0104-1.0104l0.102-19.688 4.292 4.292c0.39 0.39 1.0273 0.3867 1.4214-0.0074 0.39406-0.39406 0.39736-1.0314 0.0074-1.4214l-6-6c-0.092-0.092-0.2022-0.1638-0.32457-0.21343-0.24474-0.10126-0.52218-0.09982-0.76798 4e-3 -0.12087 0.04887-0.2278 0.1218-0.32075 0.21275-0.00202 2e-3 -0.00403 2e-3 -0.00806 0.0041l-6.0625 6.0625c-0.39406 0.39406-0.39736 1.0314-0.00736 1.4214 0.39 0.39 1.0273 0.3867 1.4214-0.0074l4.3387-4.3367-0.102 19.688c-0.00287 0.55488 0.44513 1.0029 1 1z" stroke-width="1.0052" />
    </g>
</svg>