<?xml version="1.0" encoding="UTF-8"?>
<svg fill="currentColor" version="1.1" viewBox="0 0 32 32" xmlns="http://www.w3.org/2000/svg">
 <g transform="scale(1 .99807)">
  <path d="m16 0c-6.616 0-12 5.384-12 12 0 3.868 1.88 7.52 5.032 9.77 0.048 0.034 0.098 0.066 0.148 0.096 0.732 0.43 0.804 1.816 0.788 2.07-2e-3 0.042-4e-3 0.084-4e-3 0.124v3.94c0 0.752 0.42 1.438 1.09 1.78l4.036 2.062c0.286 0.146 0.598 0.22 0.91 0.22 0.31 0 0.618-0.072 0.902-0.214l4.084-2.062c0.674-0.34 1.098-1.03 1.098-1.786v-3.916c0-1.974 1.206-2.626 1.218-2.632 0.16-0.074 0.308-0.17 0.442-0.284 2.704-2.288 4.256-5.628 4.256-9.168 0-6.616-5.384-12-12-12zm-4.036 24.062s0-0.04 2e-3 -0.062h8.124c0 0.03-8e-3 0.052-8e-3 0.084v1.916h-8.118zm4.036 6-4.034-2.062h8.118zm6.452-10.422s-1.34 0.63-2.004 2.36h-8.804c-0.248-0.692-0.678-1.404-1.45-1.858-2.538-1.812-4.194-4.784-4.194-8.142 0-5.522 4.478-10 10-10s10 4.478 10 10c0 3.064-1.378 5.806-3.548 7.64zm-5.452-15.64c-0.552 0-1 0.448-1 1s0.448 1 1 1c2.25 0 5 2.046 5 5.094 0 0.552 0.448 1 1 1s1-0.448 1-1c0-4.562-3.562-7.094-7-7.094z"/>
 </g>
</svg>
