<?xml version="1.0" encoding="UTF-8"?>
<!-- Generator: IcoMoon.io -->
<svg fill="currentColor" version="1.1" viewBox="0 0 32 32" xmlns="http://www.w3.org/2000/svg">
 <g transform="matrix(.03265 0 0 .03265 -.32486 -.3265)">
  <path d="m424.8 406.9c-4.2 6.5-63.6 89.3-178.4 248.5-12.5 16.2-27.9 24.4-46.2 24.4h-165.9c-10 0-17-2.9-21.2-8.8-4.2-5.8-4.2-12.3 0-19.5l175.9-243.6c0.8 0 0.8-0.3 0-1l-112.3-151.1c-5.8-8.4-5.8-15.3 0-20.5 4.2-5.2 11.2-7.8 21.2-7.8h167.2c18.3 0 33.7 8.1 46.2 24.4zm561.5-348.9c5 5.8 5 12.7 0 20.5l-368 507.8 234.6 335.3c5 7.1 5 13.6 0 19.5-4.2 5.8-11.6 8.8-22.5 8.8h-166c-19.1 0-34.5-8.1-46.2-24.4l-235.8-339.2c8.3-11.7 131.4-182.3 369.3-511.7 11.6-16.2 26.6-24.4 44.9-24.4h168.4c10 0 17.1 2.6 21.3 7.8z"/>
 </g>
</svg>
