<?xml version="1.0" encoding="UTF-8"?>
<!-- Generator: IcoMoon.io -->
<svg fill="currentColor" version="1.1" viewBox="0 0 32 32" xmlns="http://www.w3.org/2000/svg">
 <path d="m6 0c-3.314 0-6 2.686-6 6v20c0 3.314 2.686 6 6 6h20c3.314 0 6-2.686 6-6v-20c0-3.314-2.686-6-6-6h-20zm17.047 5.3125h4.002c0.2376 0 0.40607 0.060041 0.50586 0.18359 0.1188 0.13781 0.1188 0.30295 0 0.48828l-8.7441 12.064 5.5742 7.9668c0.1188 0.1687 0.1188 0.32271 0 0.46289-0.099793 0.13781-0.27617 0.20898-0.53516 0.20898h-3.9434c-0.45382 0-0.81966-0.19084-1.0977-0.57812l-5.6035-8.0605c0.19721-0.27799 3.1229-4.3316 8.7754-12.158 0.27562-0.38491 0.6316-0.57812 1.0664-0.57812zm-16.602 4.2109h3.9727c0.43481 0 0.80066 0.19279 1.0977 0.58008l2.6973 3.6836c-0.099793 0.15444-1.5106 2.1217-4.2383 5.9043-0.297 0.38491-0.66285 0.58008-1.0977 0.58008h-3.9414c-0.2376 0-0.40411-0.0688-0.50391-0.20898-0.099792-0.13781-0.099792-0.29377 0-0.46484l4.1797-5.7871c0.019008 0 0.019008-0.006806 0-0.023438l-2.6699-3.5898c-0.13781-0.19958-0.13781-0.36473 0-0.48828 0.099792-0.12355 0.26631-0.18555 0.50391-0.18555z" color="currentColor" fill="currentColor"/>
</svg>
