<svg fill="currentColor" version="1.1" viewBox="0 0 32 32" xml:space="preserve"
    xmlns="http://www.w3.org/2000/svg"><path d="m16.013-1.2257e-7c-8.8549 0-16.013 7.3333-16.013 16.406 0 7.252 4.5866 13.391 10.949 15.563 0.79552 0.16333 1.0869-0.353 1.0869-0.78733 0-0.38033-0.02622-1.684-0.02622-3.0423-4.4545 0.978-5.3821-1.9557-5.3821-1.9557-0.71587-1.9013-1.7766-2.39-1.7766-2.39-1.458-1.005 0.1062-1.005 0.1062-1.005 1.6173 0.10867 2.4659 1.684 2.4659 1.684 1.4314 2.4987 3.738 1.7927 4.6659 1.358 0.13242-1.0593 0.55689-1.7927 1.0076-2.2-3.5528-0.38033-7.2908-1.7927-7.2908-8.0943 0-1.7927 0.63589-3.2593 1.6435-4.4-0.15897-0.40733-0.71587-2.0917 0.1593-4.346 0 0 1.3521-0.43466 4.4007 1.684a15.396 15.657 0 0 1 4.0035-0.54333c1.3521 0 2.7304 0.19033 4.0031 0.54333 3.049-2.1187 4.4011-1.684 4.4011-1.684 0.87517 2.2543 0.31794 3.9387 0.15897 4.346 1.0341 1.1407 1.6438 2.6073 1.6438 4.4 0 6.3016-3.738 7.6866-7.3173 8.0943 0.58344 0.516 1.0869 1.4937 1.0869 3.042 0 2.2-0.02622 3.9656-0.02622 4.5086 0 0.43466 0.29172 0.951 1.0869 0.788 6.3628-2.1733 10.949-8.3116 10.949-15.564 0.02622-9.0723-7.1583-16.406-15.987-16.406z" stroke-width=".33054"/></svg>