<?xml version="1.0" encoding="UTF-8"?>
<!-- Generator: IcoMoon.io -->
<svg fill="currentColor" version="1.1" viewBox="0 0 32 32" xmlns="http://www.w3.org/2000/svg">
 <path d="m16 0c-8.836 0-16 7.164-16 16s7.164 16 16 16 16-7.164 16-16c0-8.838-7.164-16-16-16zm5.8789 7.082h3.3379c0.19822 0 0.34057 0.053173 0.42383 0.15625 0.099113 0.11497 0.099113 0.25163 0 0.40625l-7.2949 10.064 4.6504 6.6465c0.099113 0.14074 0.099113 0.26976 0 0.38672-0.083255 0.11497-0.2312 0.17578-0.44727 0.17578h-3.2891c-0.37861 0-0.68409-0.16127-0.91602-0.48438l-4.6758-6.7246c0.16453-0.23192 2.6065-3.613 7.3223-10.143 0.22994-0.32113 0.52592-0.48438 0.88867-0.48438zm-13.85 3.5156h3.3145c0.36275 0 0.66823 0.15931 0.91602 0.48242l2.25 3.0742c-0.083255 0.12885-1.2615 1.77-3.5371 4.9258-0.24778 0.32113-0.55326 0.48242-0.91602 0.48242h-3.2871c-0.19823 0-0.33862-0.056875-0.42188-0.17383-0.083255-0.11497-0.083255-0.244 0-0.38672l3.4883-4.8281c0.015858 0 0.015858-0.005655 0-0.019531l-2.2266-2.9961c-0.11497-0.16651-0.11497-0.30317 0-0.40625 0.083255-0.10308 0.2217-0.1543 0.41992-0.1543z"/>
</svg>
