<svg fill="currentColor" version="1.1" viewBox="0 0 32 32" xmlns="http://www.w3.org/2000/svg">
 <g transform="matrix(1.9999 0 0 2 .00011883 3.4783e-8)" fill="currentColor">
  <path d="m11.19 12.195c2.016-0.24 3.77-1.475 3.99-2.603 0.348-1.778 0.32-4.339 0.32-4.339 0-3.47-2.286-4.488-2.286-4.488-1.152-0.527-3.131-0.748-5.187-0.765h-0.05c-2.057 0.017-4.035 0.238-5.187 0.765 0 0-2.285 1.017-2.285 4.488l-2e-3 0.662c-4e-3 0.64-7e-3 1.35 0.011 2.091 0.083 3.394 0.626 6.74 3.78 7.57 1.454 0.383 2.703 0.463 3.709 0.408 1.823-0.1 2.847-0.647 2.847-0.647l-0.06-1.317s-1.303 0.41-2.767 0.36c-1.45-0.05-2.98-0.156-3.215-1.928a3.614 3.614 0 0 1-0.033-0.496s1.424 0.346 3.228 0.428c1.103 0.05 2.137-0.064 3.188-0.189zm1.613-2.47h-1.673v-4.08c0-0.859-0.364-1.295-1.091-1.295-0.804 0-1.207 0.517-1.207 1.541v2.233h-1.664v-2.234c0-1.024-0.403-1.541-1.207-1.541-0.727 0-1.091 0.436-1.091 1.296v4.079h-1.673v-4.202c0-0.859 0.22-1.541 0.66-2.046 0.456-0.505 1.052-0.764 1.793-0.764 0.856 0 1.504 0.328 1.933 0.983l0.417 0.695 0.417-0.695c0.429-0.655 1.077-0.983 1.934-0.983 0.74 0 1.336 0.259 1.791 0.764 0.442 0.505 0.661 1.187 0.661 2.046z"/>
 </g>
</svg>
